<svg xmlns="http://www.w3.org/2000/svg" viewBox="0 0 960 540"><defs><linearGradient id="sky" x1="0" y1="0" x2="0" y2="1"><stop stop-color="#b9dcff"/><stop offset=".55" stop-color="#ffd8ef"/><stop offset="1" stop-color="#fff1bd"/></linearGradient></defs><rect width="960" height="540" fill="url(#sky)"/><circle cx="760" cy="92" r="54" fill="#fff8c9"/><path d="M0 340c160-70 285-62 430-20s280 54 530-30v250H0z" fill="#78d6a2"/><path d="M0 380c180-40 340-24 500 0s280 20 460-30v190H0z" fill="#45b980"/><g fill="#fff8ff"><path d="M90 294h150v104H90z"/><path d="m72 296 94-76 94 76z" fill="#ff7aa8"/><path d="M338 276h160v120H338z"/><path d="m318 278 100-82 100 82z" fill="#5b7cff"/><path d="M612 290h150v106H612z"/><path d="m594 292 94-72 94 72z" fill="#ffd166"/></g><path d="M0 430h960" stroke="#fff" stroke-width="18" opacity=".55"/><path d="M60 468c150-34 300-32 470 0s300 30 430-4" stroke="#5b7cff" stroke-width="12" opacity=".35" fill="none"/></svg>
