<svg xmlns="http://www.w3.org/2000/svg" viewBox="0 0 960 540"><defs><linearGradient id="g" x1="0" y1="0" x2="0" y2="1"><stop stop-color="#090817"/><stop offset=".56" stop-color="#241638"/><stop offset="1" stop-color="#392150"/></linearGradient></defs><rect width="960" height="540" fill="url(#g)"/><path d="M0 390h960v150H0z" fill="#0d0b18"/><g fill="#161225"><rect x="60" y="158" width="110" height="232"/><rect x="220" y="110" width="150" height="280"/><rect x="430" y="180" width="120" height="210"/><rect x="620" y="90" width="170" height="300"/><rect x="825" y="205" width="86" height="185"/></g><g opacity=".7"><path d="M82 196h58M246 152h88M646 132h110" stroke="#ff5d8f" stroke-width="8" stroke-linecap="round"/><path d="M94 236h36M456 216h58M850 244h36" stroke="#38d6d1" stroke-width="6" stroke-linecap="round"/></g><path d="M0 440c160-36 300-32 466 0s318 34 494-8" fill="none" stroke="#5b7cff" stroke-width="10" opacity=".25"/><g fill="#fff8ff" opacity=".42"><rect x="130" y="410" width="52" height="34" rx="3" transform="rotate(-12 130 410)"/><rect x="512" y="398" width="62" height="38" rx="3" transform="rotate(14 512 398)"/><rect x="744" y="426" width="44" height="32" rx="3" transform="rotate(-20 744 426)"/></g></svg>
