<svg xmlns="http://www.w3.org/2000/svg" viewBox="0 0 960 540"><defs><linearGradient id="g" x1="0" y1="0" x2="0" y2="1"><stop stop-color="#b9dcff"/><stop offset=".62" stop-color="#ffd8ef"/><stop offset="1" stop-color="#fff1bd"/></linearGradient></defs><rect width="960" height="540" fill="url(#g)"/><circle cx="745" cy="92" r="58" fill="#fff8c9"/><path d="M0 384h960v156H0z" fill="#68dc88"/><g fill="#fff8ff"><rect x="70" y="190" width="120" height="194"/><rect x="240" y="138" width="150" height="246"/><rect x="450" y="210" width="120" height="174"/><rect x="640" y="126" width="160" height="258"/><rect x="840" y="230" width="78" height="154"/></g><g stroke-linecap="round"><path d="M96 230h68M270 180h92M672 168h96" stroke="#5b7cff" stroke-width="8"/><path d="M102 272h50M482 250h52M858 270h38" stroke="#ff5d8f" stroke-width="7"/></g><path d="M0 438c160-42 300-34 466 0s318 36 494-10" fill="none" stroke="#fff" stroke-width="16" opacity=".7"/></svg>
