<svg xmlns="http://www.w3.org/2000/svg" viewBox="0 0 128 160"><ellipse cx="64" cy="150" rx="34" ry="7" fill="#241638" opacity=".18"/><path d="M32 72h64l10 59c-17 13-67 13-84 0z" fill="#2b2351"/><path d="M50 74h28v58H50z" fill="#fff8ff"/><path d="M43 126h14v28H43zm28 0h14v28H71z" fill="#1d1834"/><path d="M35 88 16 112l12 10 22-28zm58 0 23 21-10 12-25-26z" fill="#e0a47c"/><circle cx="64" cy="45" r="23" fill="#e0a47c"/><path d="M38 43c5-28 47-34 56-2-15-7-38-7-56 2z" fill="#3b3155"/><circle cx="56" cy="48" r="3" fill="#241638"/><circle cx="73" cy="48" r="3" fill="#241638"/><path d="M55 61c6 4 13 4 19 0" fill="none" stroke="#241638" stroke-width="3" stroke-linecap="round"/><path d="m64 78 7 17-7 12-7-12z" fill="#ff5d8f"/><rect x="94" y="96" width="25" height="36" rx="5" fill="#fff8ff"/><path d="M100 106h13m-13 9h10" stroke="#5b7cff" stroke-width="3" stroke-linecap="round"/></svg>
