<svg xmlns="http://www.w3.org/2000/svg" viewBox="0 0 128 160"><ellipse cx="64" cy="150" rx="31" ry="7" fill="#241638" opacity=".16"/><path d="M34 72h60l8 58c-16 12-60 12-76 0z" fill="#fff8ff"/><path d="M42 126h14v28H42zm30 0h14v28H72z" fill="#2b2351"/><circle cx="64" cy="45" r="23" fill="#f0b58e"/><path d="M36 45c6-30 51-32 58 0-16-10-38-10-58 0z" fill="#5b7cff"/><circle cx="56" cy="49" r="3" fill="#241638"/><circle cx="73" cy="49" r="3" fill="#241638"/><path d="M56 62c5 4 12 4 17 0" fill="none" stroke="#241638" stroke-width="3" stroke-linecap="round"/><path d="M64 82v26M51 95h26" stroke="#ff5d8f" stroke-width="7" stroke-linecap="round"/></svg>
