<svg xmlns="http://www.w3.org/2000/svg" viewBox="0 0 128 160"><ellipse cx="64" cy="150" rx="31" ry="7" fill="#241638" opacity=".16"/><path d="M36 74h56l8 56c-14 12-58 12-72 0z" fill="#ffd166"/><path d="M42 126h14v28H42zm30 0h14v28H72z" fill="#2b2351"/><circle cx="64" cy="45" r="23" fill="#d99b73"/><path d="M35 44h58c-4-25-52-28-58 0z" fill="#38d6d1"/><path d="M34 44h60v10H34z" rx="5" fill="#ff5d8f"/><circle cx="56" cy="50" r="3" fill="#241638"/><circle cx="73" cy="50" r="3" fill="#241638"/><path d="M56 62c5 4 12 4 17 0" fill="none" stroke="#241638" stroke-width="3" stroke-linecap="round"/><path d="M90 91h24v32H90z" rx="5" fill="#fff8ff"/><path d="M96 101h12m-12 9h9" stroke="#5b7cff" stroke-width="3" stroke-linecap="round"/></svg>
