<svg xmlns="http://www.w3.org/2000/svg" viewBox="0 0 128 160"><defs><linearGradient id="h" x1="0" x2="1"><stop stop-color="#183d8f"/><stop offset="1" stop-color="#38d6d1"/></linearGradient><linearGradient id="c" x1="0" x2="1"><stop stop-color="#38d6d1"/><stop offset="1" stop-color="#5b7cff"/></linearGradient></defs><ellipse cx="64" cy="150" rx="34" ry="7" fill="#241638" opacity=".18"/><path d="M34 70h60l10 58c-16 13-64 13-80 0z" fill="url(#c)"/><path d="M44 74h40v54H44z" fill="#fff8ff" opacity=".94"/><path d="M42 124h14v28H42zm30 0h14v28H72z" fill="#2b2351"/><circle cx="64" cy="45" r="24" fill="#f4bd9c"/><path d="M31 47c4-28 51-42 67-9 5 10 0 25-7 33-2-19-7-29-22-34-14 16-31 16-38 10z" fill="url(#h)"/><circle cx="55" cy="48" r="3" fill="#241638"/><circle cx="74" cy="48" r="3" fill="#241638"/><path d="M57 60c6 5 13 5 19 0" fill="none" stroke="#241638" stroke-width="3" stroke-linecap="round"/><path d="M49 78h30" stroke="#ffd166" stroke-width="5" stroke-linecap="round"/><rect x="84" y="88" width="28" height="40" rx="5" fill="#fff8ff" stroke="#183d8f" stroke-width="3"/></svg>
