<svg xmlns="http://www.w3.org/2000/svg" viewBox="0 0 128 160"><ellipse cx="64" cy="150" rx="34" ry="7" fill="#241638" opacity=".18"/><path d="M34 72h60l10 58c-16 13-64 13-80 0z" fill="#ffd166"/><path d="M44 75h40v54H44z" fill="#fff8ff" opacity=".86"/><path d="M42 124h14v28H42zm30 0h14v28H72z" fill="#2b2351"/><path d="M36 86 18 112l13 8 19-28zm56 0 20 25-12 9-20-28z" fill="#d99b73"/><circle cx="64" cy="45" r="23" fill="#d99b73"/><path d="M36 45c3-28 53-34 59-2-14-8-45-8-59 2z" fill="#4a316d"/><path d="M40 34h48l-7-12H47z" fill="#241638"/><circle cx="56" cy="48" r="3" fill="#241638"/><circle cx="73" cy="48" r="3" fill="#241638"/><path d="M55 62c6 5 14 5 20 0" fill="none" stroke="#241638" stroke-width="3" stroke-linecap="round"/><path d="M46 78h36" stroke="#38d6d1" stroke-width="6" stroke-linecap="round"/></svg>
