<svg xmlns="http://www.w3.org/2000/svg" viewBox="0 0 128 160"><ellipse cx="64" cy="150" rx="28" ry="7" fill="#241638" opacity=".16"/><path d="M40 76h48l8 54c-13 11-51 11-64 0z" fill="#5b7cff"/><path d="M43 126h13v28H43zm29 0h13v28H72z" fill="#2b2351"/><circle cx="64" cy="48" r="22" fill="#f2bd94"/><path d="M38 48c3-29 49-34 55-3-15-9-38-8-55 3z" fill="#30204a"/><circle cx="56" cy="52" r="3" fill="#241638"/><circle cx="73" cy="52" r="3" fill="#241638"/><path d="M56 64c5 4 12 4 17 0" fill="none" stroke="#241638" stroke-width="3" stroke-linecap="round"/><path d="M48 78h32" stroke="#fff" stroke-width="6" stroke-linecap="round"/><rect x="88" y="86" width="22" height="30" rx="5" fill="#ffd166"/></svg>
