<svg xmlns="http://www.w3.org/2000/svg" viewBox="0 0 128 160"><ellipse cx="64" cy="150" rx="30" ry="7" fill="#241638" opacity=".16"/><path d="M38 73h52l8 58c-14 11-54 11-68 0z" fill="#38d6d1"/><path d="M42 126h14v28H42zm30 0h14v28H72z" fill="#2b2351"/><circle cx="64" cy="45" r="23" fill="#e7aa82"/><path d="M37 46c6-29 49-35 58 0-20-12-37-5-58 0z" fill="#473052"/><circle cx="56" cy="49" r="3" fill="#241638"/><circle cx="73" cy="49" r="3" fill="#241638"/><path d="M56 62c5 4 12 4 17 0" fill="none" stroke="#241638" stroke-width="3" stroke-linecap="round"/><path d="M38 88 20 108l11 10 20-23zm52 0 19 20-11 10-20-23z" fill="#e7aa82"/></svg>
