<svg xmlns="http://www.w3.org/2000/svg" viewBox="0 0 128 160"><ellipse cx="64" cy="150" rx="31" ry="7" fill="#241638" opacity=".16"/><path d="M36 73h56l12 58c-16 12-64 12-80 0z" fill="#ff5d8f"/><path d="M42 126h14v28H42zm30 0h14v28H72z" fill="#2b2351"/><circle cx="64" cy="45" r="23" fill="#f0b58e"/><path d="M34 50c-1-33 54-42 62-7 2 14-5 26-13 34-2-19-14-26-24-33-8 11-17 13-25 6z" fill="#6e3a8f"/><circle cx="56" cy="49" r="3" fill="#241638"/><circle cx="73" cy="49" r="3" fill="#241638"/><path d="M56 62c5 4 12 4 17 0" fill="none" stroke="#241638" stroke-width="3" stroke-linecap="round"/><path d="M36 88 18 108l11 10 20-23zm56 0 18 20-11 10-20-23z" fill="#f0b58e"/></svg>
