<svg xmlns="http://www.w3.org/2000/svg" viewBox="0 0 128 160"><ellipse cx="64" cy="150" rx="30" ry="7" fill="#241638" opacity=".18"/><path d="M38 72h52l9 58c-14 12-56 12-70 0z" fill="#ff8f2f"/><path d="M46 75h36v54H46z" fill="#5b7cff"/><path d="M42 125h14v28H42zm30 0h14v28H72z" fill="#2b2351"/><path d="M39 87 18 103l10 12 23-19zm50 0 21 17-10 11-22-19z" fill="#e7aa82"/><circle cx="64" cy="46" r="22" fill="#e7aa82"/><path d="M36 45c6-28 50-28 56 0z" fill="#ffd166"/><path d="M32 45h64v10H32z" rx="5" fill="#e7a72e"/><circle cx="56" cy="49" r="3" fill="#241638"/><circle cx="73" cy="49" r="3" fill="#241638"/><path d="M56 62c5 4 12 4 17 0" fill="none" stroke="#241638" stroke-width="3" stroke-linecap="round"/><path d="M48 80h32" stroke="#fff" stroke-width="6" stroke-linecap="round" opacity=".8"/></svg>
