<svg xmlns="http://www.w3.org/2000/svg" viewBox="0 0 1600 900" role="img" aria-label="Ilustrasi kota dan desa Kertasa bersih">
  <defs>
    <linearGradient id="sky" x1="0" x2="0" y1="0" y2="1">
      <stop stop-color="#8bdcff"/>
      <stop offset=".48" stop-color="#dff7ea"/>
      <stop offset="1" stop-color="#ffe29a"/>
    </linearGradient>
    <linearGradient id="road" x1="0" x2="1">
      <stop stop-color="#293746"/>
      <stop offset="1" stop-color="#445568"/>
    </linearGradient>
  </defs>
  <rect width="1600" height="900" fill="url(#sky)"/>
  <path d="M0 580c250-60 430-28 640-42 270-18 520-112 960-34v396H0z" fill="#55ad64"/>
  <path d="M0 690c330-62 592-42 806 8 258 60 458 56 794-30v232H0z" fill="#3b8d58"/>
  <path d="M620 900 850 512l204 388z" fill="url(#road)"/>
  <path d="M826 548 838 548 788 900h-58z" fill="#ffd166"/>
  <path d="M899 548h12l110 352h-58z" fill="#ffd166"/>
  <g opacity=".78">
    <rect x="1038" y="246" width="80" height="248" rx="8" fill="#386a96"/>
    <rect x="1136" y="192" width="112" height="302" rx="8" fill="#27547e"/>
    <rect x="1266" y="280" width="90" height="214" rx="8" fill="#4e7fa4"/>
    <rect x="1375" y="224" width="130" height="270" rx="8" fill="#2f648c"/>
  </g>
  <g fill="#fff" opacity=".82">
    <ellipse cx="302" cy="150" rx="124" ry="34"/>
    <circle cx="246" cy="134" r="38"/>
    <circle cx="348" cy="122" r="48"/>
    <ellipse cx="1000" cy="122" rx="142" ry="38"/>
    <circle cx="930" cy="104" r="42"/>
    <circle cx="1048" cy="92" r="54"/>
  </g>
  <g>
    <rect x="120" y="435" width="180" height="120" rx="8" fill="#ffd45a"/>
    <path d="M84 440 210 346l126 94z" fill="#c24e38"/>
    <rect x="372" y="406" width="214" height="146" rx="9" fill="#24a78a"/>
    <path d="M334 412 479 310l145 102z" fill="#8f4435"/>
    <rect x="676" y="380" width="170" height="120" rx="8" fill="#f26d62"/>
    <path d="M642 386 761 306l119 80z" fill="#a94d34"/>
  </g>
  <g transform="translate(170 600)">
    <rect x="0" y="46" width="230" height="76" rx="20" fill="#1f3651"/>
    <rect x="40" y="10" width="118" height="58" rx="18" fill="#2f82ff"/>
    <rect x="62" y="22" width="70" height="22" rx="7" fill="#bff3ff"/>
    <text x="114" y="84" text-anchor="middle" font-family="Arial, sans-serif" font-size="24" font-weight="900" fill="#fff">ANTI SUAP</text>
    <circle cx="54" cy="124" r="24" fill="#ffd166"/>
    <circle cx="182" cy="124" r="24" fill="#ffd166"/>
  </g>
  <g transform="translate(1060 575)">
    <path d="M78 0 150 26v64c0 40-26 68-72 83C32 158 6 130 6 90V26z" fill="#24b37a"/>
    <path d="m42 83 26 26 54-66" fill="none" stroke="#fff" stroke-width="16" stroke-linecap="round" stroke-linejoin="round"/>
  </g>
</svg>
