<svg xmlns="http://www.w3.org/2000/svg" viewBox="0 0 1600 900" role="img" aria-label="Latar permukiman rumah warga desa">
  <defs>
    <linearGradient id="sky" x1="0" x2="0" y1="0" y2="1">
      <stop offset="0" stop-color="#c7f1ff"/>
      <stop offset=".64" stop-color="#eef8df"/>
      <stop offset="1" stop-color="#ffd7a0"/>
    </linearGradient>
  </defs>
  <rect width="1600" height="900" fill="url(#sky)"/>
  <rect y="520" width="1600" height="380" fill="#78bf6a"/>
  <path d="M0 610c300 35 538 28 790-8 284-41 522-33 810 10v96H0z" fill="#cfae72"/>
  <path d="M0 690c285-44 530-35 800 4 280 40 520 36 800-10v72H0z" fill="#b89258"/>
  <g>
    <rect x="72" y="410" width="132" height="92" rx="5" fill="#ffc34d"/>
    <path d="M44 414l94-62 94 62z" fill="#b55332"/>
    <rect x="268" y="385" width="160" height="116" rx="5" fill="#18a999"/>
    <path d="M236 390l112-70 112 70z" fill="#8f4435"/>
    <rect x="1140" y="392" width="150" height="110" rx="5" fill="#4aa5e8"/>
    <path d="M1110 397l105-66 105 66z" fill="#7a4a2e"/>
    <rect x="1360" y="422" width="120" height="82" rx="5" fill="#f25c68"/>
    <path d="M1336 426l84-55 84 55z" fill="#b6562f"/>
  </g>
  <g fill="#fff" opacity=".78">
    <ellipse cx="260" cy="150" rx="98" ry="28"/><circle cx="212" cy="140" r="34"/><circle cx="295" cy="130" r="42"/>
    <ellipse cx="1140" cy="134" rx="112" ry="30"/><circle cx="1088" cy="123" r="36"/><circle cx="1178" cy="112" r="42"/>
  </g>
</svg>
