<svg xmlns="http://www.w3.org/2000/svg" viewBox="0 0 1600 900" role="img" aria-label="Latar jalan akses pasar desa">
  <defs>
    <linearGradient id="sky" x1="0" x2="0" y1="0" y2="1"><stop offset="0" stop-color="#c8f3ff"/><stop offset=".68" stop-color="#ecf8df"/><stop offset="1" stop-color="#ffdca3"/></linearGradient>
  </defs>
  <rect width="1600" height="900" fill="url(#sky)"/>
  <path d="M0 512h1600v388H0z" fill="#80bf63"/>
  <path d="M0 564c280 46 475 25 760 30 327 6 505 29 840-18v140H0z" fill="#6aaa52"/>
  <path d="M-40 640c320-82 616-82 878-42 264 40 487 42 802-8v164H-40z" fill="#606970"/>
  <path d="M0 687c315-58 565-58 800-21 240 38 488 35 800-18" fill="none" stroke="#f5d86e" stroke-width="10" stroke-dasharray="70 62" stroke-linecap="round"/>
  <g>
    <rect x="86" y="420" width="110" height="84" fill="#f25c68"/><path d="M66 424l75-50 75 50z" fill="#b55332"/>
    <rect x="246" y="390" width="140" height="112" fill="#ffc34d"/><path d="M220 394l96-58 96 58z" fill="#9c4f36"/>
    <rect x="1220" y="388" width="150" height="112" fill="#18a999"/><path d="M1194 392l101-60 101 60z" fill="#8f4435"/>
    <rect x="1412" y="428" width="105" height="76" fill="#4aa5e8"/><path d="M1395 431l70-45 70 45z" fill="#7a4a2e"/>
  </g>
  <g fill="#fff" opacity=".76"><ellipse cx="270" cy="150" rx="96" ry="26"/><circle cx="222" cy="140" r="34"/><circle cx="304" cy="130" r="40"/><ellipse cx="1130" cy="128" rx="112" ry="29"/><circle cx="1078" cy="120" r="36"/><circle cx="1170" cy="108" r="42"/></g>
</svg>
