<svg xmlns="http://www.w3.org/2000/svg" viewBox="0 0 1600 900" role="img" aria-label="Latar sawah dan drainase">
  <defs>
    <linearGradient id="sky" x1="0" x2="0" y1="0" y2="1"><stop offset="0" stop-color="#b9efff"/><stop offset=".62" stop-color="#e9f8e8"/><stop offset="1" stop-color="#cfeaa0"/></linearGradient>
    <linearGradient id="water" x1="0" x2="0" y1="0" y2="1"><stop offset="0" stop-color="#7fd2e6"/><stop offset="1" stop-color="#2385a6"/></linearGradient>
  </defs>
  <rect width="1600" height="900" fill="url(#sky)"/>
  <path d="M0 470h1600v430H0z" fill="#90c96b"/>
  <g stroke="#5fa84a" stroke-width="7" opacity=".7">
    <path d="M0 535h1600M0 612h1600M0 690h1600M0 770h1600"/>
    <path d="M95 470 0 900M310 470 212 900M540 470 446 900M787 470 728 900M1040 470 1065 900M1280 470 1390 900"/>
  </g>
  <path d="M0 590c240-45 455-38 704-12 290 31 528 11 896-49v150c-312 38-596 61-913 20-242-31-449-23-687 20z" fill="url(#water)"/>
  <g stroke="#dff7ff" stroke-width="5" stroke-linecap="round" opacity=".65"><path d="M60 627c270-43 475-20 700-4 270 19 490-3 790-48"/><path d="M130 670c240-24 420-8 610 5 242 17 482 8 760-28"/></g>
  <g fill="#fff" opacity=".8"><ellipse cx="1180" cy="150" rx="110" ry="31"/><circle cx="1126" cy="138" r="38"/><circle cx="1210" cy="130" r="44"/></g>
</svg>
