<svg xmlns="http://www.w3.org/2000/svg" viewBox="0 0 1600 900" role="img" aria-label="Latar halaman sekolah desa">
  <defs><linearGradient id="sky" x1="0" x2="0" y1="0" y2="1"><stop offset="0" stop-color="#ccefff"/><stop offset=".65" stop-color="#f4f8e5"/><stop offset="1" stop-color="#ffd8a8"/></linearGradient></defs>
  <rect width="1600" height="900" fill="url(#sky)"/>
  <rect y="520" width="1600" height="380" fill="#78bf6a"/>
  <path d="M0 618c310 34 492 30 782-8 286-37 522-32 818 13v93H0z" fill="#d7b879"/>
  <rect x="124" y="342" width="280" height="170" rx="8" fill="#f2c94c"/><path d="M92 350l172-100 172 100z" fill="#b55332"/><rect x="156" y="415" width="52" height="57" fill="#fff2c7"/><rect x="320" y="415" width="52" height="57" fill="#fff2c7"/><rect x="235" y="401" width="59" height="111" fill="#6d4a34"/>
  <rect x="1120" y="360" width="320" height="150" rx="8" fill="#4aa5e8"/><path d="M1084 366l196-95 196 95z" fill="#7a4a2e"/><rect x="1160" y="430" width="60" height="52" fill="#d7f5ff"/><rect x="1340" y="430" width="60" height="52" fill="#d7f5ff"/>
  <rect x="690" y="390" width="220" height="70" rx="8" fill="#10202d" opacity=".72"/><text x="800" y="435" text-anchor="middle" font-family="Arial, sans-serif" font-size="34" font-weight="900" fill="#fff">SEKOLAH</text>
  <g fill="#fff" opacity=".8"><ellipse cx="250" cy="150" rx="100" ry="28"/><circle cx="204" cy="140" r="34"/><circle cx="288" cy="130" r="42"/></g>
</svg>
