<svg xmlns="http://www.w3.org/2000/svg" viewBox="0 0 420 180">
  <rect width="420" height="180" rx="18" fill="#f6fbff"/>
  <path d="M0 128c75-18 139-14 194 0s122 15 226-10v62H0z" fill="#dfeef3"/>
  <circle cx="340" cy="42" r="24" fill="#f5b642" opacity=".55"/>
  <g transform="translate(64 36)">
    <rect x="0" y="44" width="112" height="76" rx="8" fill="#10202d" opacity=".12"/>
    <path d="M20 42h72v72H20z" fill="#e84d5b"/>
    <path d="M30 52h52v62H30z" fill="#fff" opacity=".86"/>
    <path d="M34 66h44M34 82h36M34 98h28" stroke="#10202d" stroke-width="6" stroke-linecap="round" opacity=".5"/>
    <path d="M18 42h76l-10-22H28z" fill="#10202d"/>
  </g>
  <g transform="translate(192 28)">
    <ellipse cx="46" cy="132" rx="38" ry="8" fill="#10202d" opacity=".16"/>
    <path d="M19 54h54l8 68c-13 9-56 9-70 0z" fill="#26384a"/>
    <path d="M34 55h24v54H34z" fill="#fff"/>
    <circle cx="46" cy="33" r="20" fill="#d7a06d"/>
    <path d="M26 32c4-18 36-19 42 1-11-5-31-5-42-1z" fill="#10202d"/>
    <path d="M36 42c6 4 14 4 20 0" fill="none" stroke="#10202d" stroke-width="3" stroke-linecap="round"/>
    <path d="M17 66 0 92l12 8 18-27zm58 0 28 20-7 12-31-20z" fill="#d7a06d"/>
    <rect x="83" y="76" width="52" height="38" rx="6" fill="#f6fbff" stroke="#2675ff" stroke-width="4"/>
    <path d="M94 88h30M94 99h22" stroke="#2675ff" stroke-width="4" stroke-linecap="round"/>
  </g>
  <g transform="translate(300 58)">
    <ellipse cx="36" cy="102" rx="30" ry="7" fill="#10202d" opacity=".16"/>
    <path d="M15 44h42l8 54c-10 8-48 8-58 0z" fill="#f5b642"/>
    <circle cx="36" cy="24" r="18" fill="#c98a62"/>
    <path d="M20 23c3-13 31-15 34 1-9-4-24-4-34-1z" fill="#26384a"/>
    <path d="M28 36c5 3 11 3 16 0" fill="none" stroke="#10202d" stroke-width="3" stroke-linecap="round"/>
    <path d="M20 55 5 72l9 8 15-18zm32 0 18 14-7 10-19-15z" fill="#c98a62"/>
    <path d="M19 70h34" stroke="#10202d" stroke-width="5" stroke-linecap="round"/>
  </g>
  <path d="M30 34h120" stroke="#e84d5b" stroke-width="10" stroke-linecap="round"/>
  <path d="M30 52h84" stroke="#10202d" stroke-width="7" stroke-linecap="round" opacity=".55"/>
</svg>
