<svg xmlns="http://www.w3.org/2000/svg" viewBox="0 0 900 180" role="img" aria-label="Asset jembatan kayu desa">
  <defs>
    <linearGradient id="wood" x1="0" x2="0" y1="0" y2="1">
      <stop offset="0" stop-color="#9a6a3f"/>
      <stop offset=".55" stop-color="#7b4d2d"/>
      <stop offset="1" stop-color="#5a351f"/>
    </linearGradient>
    <linearGradient id="rope" x1="0" x2="1">
      <stop offset="0" stop-color="#e2c17b"/>
      <stop offset="1" stop-color="#b88a43"/>
    </linearGradient>
  </defs>
  <path d="M42 109C190 49 319 43 450 45c131-2 260 4 408 64" fill="none" stroke="#3f281a" stroke-opacity=".22" stroke-width="34" stroke-linecap="round"/>
  <path d="M48 101C196 42 319 37 450 38c131-1 254 4 402 63" fill="none" stroke="url(#rope)" stroke-width="11" stroke-linecap="round"/>
  <path d="M58 126C204 78 324 73 450 74c126-1 246 4 392 52" fill="none" stroke="url(#wood)" stroke-width="38" stroke-linecap="round"/>
  <g stroke="#432616" stroke-width="5" stroke-linecap="round">
    <path d="M93 105l-7 47"/>
    <path d="M143 91l-5 55"/>
    <path d="M196 82l-3 55"/>
    <path d="M249 77l-2 53"/>
    <path d="M304 73l-1 51"/>
    <path d="M359 72v49"/>
    <path d="M415 71v49"/>
    <path d="M471 71v49"/>
    <path d="M527 72v49"/>
    <path d="M582 73l1 51"/>
    <path d="M637 77l2 53"/>
    <path d="M690 82l3 55"/>
    <path d="M743 91l5 55"/>
    <path d="M793 105l7 47"/>
  </g>
  <g stroke="#2d1a10" stroke-opacity=".34" stroke-width="3" stroke-linecap="round">
    <path d="M90 121c144-39 251-44 360-43 109-1 216 4 360 43"/>
    <path d="M104 137c134-31 238-36 346-35 108-1 212 4 346 35"/>
  </g>
  <g fill="#5a351f">
    <rect x="54" y="76" width="18" height="85" rx="7"/>
    <rect x="828" y="76" width="18" height="85" rx="7"/>
  </g>
  <path d="M61 79C201 22 320 17 450 18c130-1 249 4 389 61" fill="none" stroke="url(#rope)" stroke-width="7" stroke-linecap="round"/>
</svg>
